<svg width="180" height="52" viewBox="0 0 180 52" fill="none" xmlns="http://www.w3.org/2000/svg">
<path d="M51.1504 25.9379C51.1612 31.0005 49.6753 35.9497 46.8712 40.164C44.0671 44.3783 40.0797 47.6687 35.4061 49.6138C30.7325 51.5589 25.5889 52.0776 20.6235 51.0942C15.6582 50.1163 11.0927 47.6849 7.5105 44.1082C3.92833 40.5368 1.48618 35.9767 0.497437 31.0167C-0.496711 26.0514 0.00576582 20.9078 1.94003 16.2288C3.8743 11.5498 7.15391 7.55161 11.3574 4.74206C15.5663 1.92711 20.5155 0.425082 25.5781 0.425082C28.9333 0.419679 32.2561 1.07344 35.3575 2.35395C38.4588 3.63445 41.2791 5.50928 43.651 7.88119C46.0283 10.2531 47.914 13.0626 49.1999 16.164C50.4858 19.2599 51.1504 22.5827 51.1504 25.9379ZM28.5119 9.28597C27.5556 9.19411 26.5722 9.1617 25.5727 9.1617C24.5731 9.1617 23.6114 9.19952 22.6496 9.28597V22.8907H28.5119V9.28597ZM42.0463 17.2121C39.9068 16.5097 37.724 15.964 35.5087 15.5696V26.9861C35.5087 35.2095 32.013 39.5372 25.5835 39.5372C19.1539 39.5372 15.6582 35.2095 15.6582 26.9861V15.575C13.443 15.9695 11.2602 16.5206 9.12059 17.2175V27.0618C9.26107 31.3355 11.0603 35.3823 14.1292 38.354C17.2034 41.3256 21.3097 42.9897 25.5835 42.9897C29.8572 42.9897 33.9635 41.3256 37.0378 38.354C40.1121 35.3823 41.9059 31.3301 42.0463 27.0618V17.2121Z" fill="#7000FF"/>
<path d="M133.821 26.7969C133.821 30.1143 131.946 31.6434 129.158 31.6434C126.37 31.6434 124.566 30.1413 124.566 26.7969V15.8505H118.552V27.0076C118.552 34.28 124.636 37.1274 129.207 37.1274C133.778 37.1274 139.867 34.28 139.867 27.0076V15.8505H133.853L133.821 26.7969Z" fill="#7000FF"/>
<path d="M113.463 20.9294V15.8452H93.9146V20.9294H105.482L93.4446 31.6597V36.7439H114.187V31.6597H101.441L113.463 20.9294Z" fill="#7000FF"/>
<path d="M169.978 15.4507C166.163 15.4507 163.294 17.0013 161.873 19.3624C160.425 17.0013 157.27 15.4507 154.001 15.4507C147.572 15.4507 144.227 19.5461 144.227 24.6087V36.7438H150.241V25.4624C150.241 23.0419 151.511 20.9131 154.428 20.9131C155.022 20.8753 155.617 20.9671 156.173 21.1832C156.73 21.394 157.238 21.7235 157.654 22.145C158.075 22.5664 158.399 23.0743 158.61 23.6308C158.821 24.1873 158.907 24.7816 158.869 25.3814V36.7492H164.883V25.376C164.883 22.95 166.309 20.9077 169.2 20.9077C172.085 20.9077 173.479 23.0365 173.479 25.457V36.733H179.493V24.6195C179.493 19.5624 176.386 15.4615 169.924 15.4615L169.978 15.4507Z" fill="#7000FF"/>
<path d="M83.4707 26.7969C83.4707 30.1143 81.6013 31.6434 78.8296 31.6434C76.0632 31.6434 74.2154 30.1413 74.2154 26.7969V15.8505H68.2019V27.0076C68.2019 34.28 74.264 37.1274 78.8566 37.1274C83.4491 37.1274 89.495 34.28 89.495 27.0076V15.8505H83.4815L83.4707 26.7969Z" fill="#7000FF"/>
</svg>
