<svg width="12" height="12" viewBox="0 0 12 12" fill="none" xmlns="http://www.w3.org/2000/svg">
<g clip-path="url(#clip0_33335_3030)">
<path d="M5.99679 0.00390913C2.68503 0.00461184 0.000894764 2.6899 0.00159747 6.00165C0.00183171 7.1484 0.33091 8.27103 0.949763 9.23645L0.0168228 11.657C-0.0328587 11.7858 0.0312284 11.9304 0.159965 11.9801C0.188752 11.9912 0.21932 11.9969 0.250169 11.9968C0.278793 11.997 0.307206 11.9921 0.334119 11.9823L2.83265 11.0904C5.64377 12.8412 9.34194 11.9816 11.0927 9.17045C12.8435 6.35931 11.9839 2.66116 9.1728 0.910381C8.21988 0.316872 7.11946 0.00280822 5.99679 0.00390913Z" fill="#5D6C7B"/>
<path d="M8.85709 7.02457C8.85709 7.02457 8.24496 6.72475 7.86168 6.52487C7.42795 6.3015 6.91825 6.71976 6.67839 6.95762C6.30509 6.81422 5.96413 6.59779 5.67548 6.32099C5.39864 6.03239 5.1822 5.69144 5.03885 5.31809C5.27672 5.07774 5.69396 4.56853 5.4716 4.13479C5.27421 3.75102 4.97191 3.13889 4.97191 3.13889C4.92949 3.05471 4.84331 3.00156 4.74903 3.00146H4.24933C3.52161 3.12716 2.99249 3.76212 3.00008 4.50058C3.00008 5.28511 3.93902 6.79223 4.57216 7.42584C5.2053 8.05945 6.7124 8.99792 7.49742 8.99792C8.23587 9.00551 8.87084 8.47637 8.99653 7.74866V7.24897C8.9966 7.15368 8.94254 7.06666 8.85709 7.02457Z" fill="#F7F7F7"/>
</g>
<defs>
<clipPath id="clip0_33335_3030">
<rect width="12" height="12" fill="white"/>
</clipPath>
</defs>
</svg>
